<?xml version="1.0" encoding="UTF-8"?>
<svg id="Layer_1" data-name="Layer 1" xmlns="http://www.w3.org/2000/svg" width="100" height="80" viewBox="0 0 100 80">
  <path d="m83.9994,26.4c.92.54,1.99.65,3.03.39,1.04-.27,1.9-.92,2.44-1.84,1.1-1.93.45-4.37-1.49-5.47-.62-.36-1.31-.54-1.99-.54-1.37,0-2.74.71-3.45,1.99-.54.92-.68,1.99-.42,3.03.27,1.05.95,1.91,1.88,2.44Z" style="fill: #ffd803; stroke-width: 0px;"/>
  <path d="m53.9994,14.3c0-2.2-1.78-4.01-4.01-4.01-2.2,0-3.98,1.81-3.98,4.01s1.78,3.98,3.98,3.98c2.23.01,4.01-1.78,4.01-3.98Z" style="fill: #ffd803; stroke-width: 0px;"/>
  <path d="m15.0194,19.06c-.33-.09-.68-.12-1.01-.12-.71,0-1.4.18-2.02.54-1.9,1.1-2.56,3.54-1.46,5.47,1.07,1.81,3.57,2.55,5.47,1.45.59-.39,1.1-.86,1.46-1.46.71-1.25.71-2.79,0-4.01-.53-.92-1.4-1.6-2.44-1.87Z" style="fill: #ffd803; stroke-width: 0px;"/>
  <path d="m39.0694,40.38c-.03.06-.03.12-.06.15-.06.09-.15.12-.24.18-.03.03-.06.09-.12.12-.18.09-.36.15-.56.15-.15,0-.3-.03-.45-.09-.06-.03-.09-.06-.12-.09-.03,0-.06,0-.09-.03l-18.78-13.74c-.45.51-.95.95-1.55,1.28-.56.36-1.16.54-1.78.68l6.39,30.47c18.73,4.04,37.76,4.04,56.55,0l6.39-30.47c-.62-.15-1.22-.33-1.78-.65-.59-.36-1.07-.8-1.52-1.31l-18.82,13.73c0,.03-.03.03-.06.03-.06.03-.09.06-.15.09-.12.06-.27.09-.45.09s-.36-.06-.54-.15c-.06-.03-.09-.09-.15-.12-.06-.06-.15-.09-.21-.18-.03-.03-.03-.09-.06-.15-.03-.03-.06-.03-.06-.06l-8.89-20.13c-.62.21-1.28.33-1.99.33-.68,0-1.34-.12-1.96-.33l-8.89,20.13c-.02.04-.05.04-.05.07Z" style="fill: #ffd803; stroke-width: 0px;"/>
  <path d="m77.7494,61.81c-9.22,1.93-18.52,2.94-27.8,2.94s-18.55-1.01-27.74-2.94l1.07,5.11c17.69,3.72,35.65,3.72,53.39,0l1.08-5.11Z" style="fill: #ffd803; stroke-width: 0px;"/>
</svg>