<?xml version="1.0" encoding="UTF-8"?>
<svg id="_圖層_1" data-name="圖層 1" xmlns="http://www.w3.org/2000/svg" viewBox="0 0 150 150">
  <path d="M75.01,47.85c-14.98,0-27.17,12.19-27.17,27.17s12.19,27.17,27.17,27.17,27.17-12.19,27.17-27.17-12.19-27.17-27.17-27.17ZM75.01,86.18c-6.16,0-11.17-5.01-11.17-11.17s5.01-11.17,11.17-11.17,11.17,5.01,11.17,11.17-5.01,11.17-11.17,11.17Z"/>
  <path d="M136.34,84.62l-7.43-6.76c.05-.95.08-1.91.08-2.85s-.03-1.89-.08-2.85l7.39-6.72c3.87-3.48,5.39-8.71,4.02-13.59-.08-.35-.18-.71-.31-1.06-1.16-3.15-2.61-6.28-4.29-9.32-.03-.05-.05-.09-.08-.14l-1.12-1.94s-.04-.07-.06-.1c-1.76-2.93-3.77-5.77-6-8.47-3.49-4.2-9.16-5.82-14.45-4.14l-9.56,3.04c-1.6-1.04-3.25-1.99-4.94-2.85l-2.14-9.8c-1.2-5.46-5.47-9.56-10.86-10.44-7.61-1.27-15.71-1.24-22.96.02-5.42.88-9.69,4.98-10.89,10.45l-2.14,9.79c-1.69.86-3.34,1.81-4.94,2.85l-9.55-3.04c-5.33-1.7-11.01-.05-14.46,4.16-2.21,2.68-4.23,5.52-5.99,8.46-.02.03-.04.07-.06.1l-1.12,1.94s-.05.09-.08.13c-1.68,3.03-3.13,6.17-4.3,9.34-1.89,5.15-.44,10.89,3.66,14.57l7.43,6.76c-.05.95-.08,1.91-.08,2.85s.03,1.91.08,2.87l-7.39,6.73c-4.14,3.72-5.59,9.45-3.69,14.62,1.17,3.15,2.61,6.29,4.29,9.32.03.04.05.09.08.13l1.12,1.94s.04.07.06.1c1.76,2.93,3.77,5.78,6,8.47,3.49,4.2,9.16,5.82,14.46,4.13l9.52-3.05c1.6,1.04,3.24,1.99,4.93,2.85l2.14,9.8c1.2,5.46,5.47,9.56,10.86,10.44,3.77.63,7.64.95,11.5.95s7.72-.32,11.47-.94c5.42-.88,9.69-4.98,10.89-10.45l2.14-9.79c1.69-.86,3.34-1.81,4.94-2.85l9.55,3.04c5.33,1.69,11.01.05,14.46-4.16,2.21-2.68,4.23-5.52,5.99-8.46.02-.03.04-.07.06-.1l1.13-1.94s.05-.09.08-.13c1.68-3.03,3.13-6.17,4.3-9.33,1.9-5.15.45-10.89-3.66-14.58ZM112.65,69.98c.22,1.69.34,3.38.34,5.03s-.11,3.34-.34,5.03c-.34,2.6.61,5.2,2.55,6.97l9.13,8.31c-.75,1.81-1.61,3.61-2.59,5.37l-1.06,1.82c-1.04,1.72-2.19,3.41-3.45,5.04l-11.75-3.73c-2.5-.79-5.22-.31-7.3,1.28-2.69,2.06-5.62,3.76-8.71,5.03-2.43,1-4.21,3.12-4.77,5.69l-2.63,12.03c-4.67.62-9.48.62-14.18,0l-2.63-12.03c-.56-2.56-2.34-4.69-4.77-5.69-3.09-1.27-6.02-2.96-8.71-5.03-2.08-1.6-4.81-2.08-7.31-1.28l-11.71,3.75c-1.25-1.62-2.41-3.31-3.45-5.04l-1.05-1.82c-.98-1.76-1.84-3.57-2.59-5.38l9.13-8.31c1.94-1.76,2.89-4.36,2.55-6.96-.23-1.72-.34-3.42-.34-5.07s.11-3.34.34-5.03c.34-2.6-.61-5.2-2.55-6.97l-9.13-8.31c.75-1.81,1.61-3.61,2.59-5.38l1.05-1.82c1.04-1.72,2.19-3.41,3.45-5.04l11.75,3.73c2.5.79,5.22.31,7.3-1.28,2.69-2.06,5.62-3.76,8.71-5.03,2.43-1,4.21-3.12,4.77-5.69l2.64-12.04c4.58-.63,9.44-.63,14.17-.01l2.63,12.03c.56,2.56,2.34,4.69,4.77,5.69,3.09,1.27,6.02,2.96,8.71,5.03,2.08,1.6,4.8,2.08,7.3,1.28l11.75-3.73c1.26,1.63,2.41,3.32,3.45,5.04l1.05,1.82c.98,1.77,1.84,3.57,2.59,5.38l-9.16,8.33c-1.94,1.77-2.89,4.37-2.55,6.97Z"/>
</svg>