<?xml version="1.0" encoding="UTF-8"?>
<svg id="Layer_1" data-name="Layer 1" xmlns="http://www.w3.org/2000/svg" width="110" height="110" viewBox="0 0 110 110">
  <path d="m33.2094,74.212c-17.363-13.191-19.219-38.715-3.7109-54.227,14.082-14.082,36.914-14.082,51,0,15.512,15.512,13.656,41.031-3.7109,54.227.8086,2.7188-.1094,5.3906-2.1328,7.2227,3.082,4.6094-.2695,10.801-5.7852,10.801h-2.6797c-3.25,11.121-19.137,11.121-22.387,0-2.9453,0-5.2539.2852-7.5898-2.0508-2.3438-2.3438-2.7188-5.9883-.8672-8.7461-.1289-.1094-.2539-.2266-.3711-.3477h-.0078c-1.7812-1.7773-2.4922-4.4062-1.7578-6.8789l.0002-.0003Zm7.9141-30.898c-3.1602,0-3.1602-4.8008,0-4.8008h27.746c3.1602,0,3.1602,4.8008,0,4.8008h-3.418l-7.293,25.918h11.957c1.4023,0,2.7148.4219,3.8086,1.1484,15.051-11.461,16.586-33.586,3.1758-46.996-12.207-12.207-32.004-12.207-44.211,0-13.41,13.406-11.871,35.531,3.1797,46.992,1.0977-.7266,2.4062-1.1484,3.8086-1.1484h11.957l-7.293-25.918-3.4177.004Zm19.355,0h-10.961l5.4805,19.473,5.4805-19.473Zm.5625,48.926h-12.086c2.6094,4.7695,9.4766,4.7734,12.086,0Zm7.8281-9.1055h-27.742c-.5898,0-1.1289.2422-1.5195.6328l-.0039-.0039c-1.3516,1.3594-.3906,3.6758,1.5234,3.6758h27.742c1.875,0,2.8906-2.2969,1.5195-3.6719,0-.1328-.7812-.6328-1.5195-.6328Zm1.25-9.1055h-30.242c-.5938,0-1.1328.2422-1.5234.6289l.0039.0039c-.8438.8438-.8438,2.1914,0,3.0352l-.0039.0039c.7812.7773,1.6719.6289,2.7734.6289h28.992c.5938,0,1.1328-.2422,1.5234-.6289l-.0039-.0039c1.3594-1.3555.3867-3.668-1.5195-3.668h0Z" style="fill-rule: evenodd; stroke-width: 0px;"/>
</svg>