<?xml version="1.0" encoding="UTF-8"?>
<svg id="Layer_1" data-name="Layer 1" xmlns="http://www.w3.org/2000/svg" width="110" height="110" viewBox="0 0 110 110">
  <path d="m71.8008,75.8556h-33.602c-3.4922,0-3.4922,5.3164,0,5.3164h33.605c3.4922,0,3.4922-5.3164-.0039-5.3164h.0009Zm-1.3906,10.117h-30.82c-3.4922,0-3.4922,5.3164,0,5.3164h30.824c3.4922-.0039,3.4922-5.3164-.0039-5.3164h0Zm-8.2617,10.113h-14.297c2.8594,6.0117,11.438,6.0117,14.297,0Zm-.707-54.359h-12.879l6.4375,22.887,6.4415-22.887Zm-21.855,0h4l8.2539,29.328h-13.641c-1.5742,0-3.0391.4922-4.2461,1.332-16.977-12.785-18.773-37.66-3.7031-52.73,13.668-13.668,35.832-13.668,49.5,0,15.07,15.07,13.273,39.941-3.7031,52.73-1.207-.8398-2.6719-1.332-4.2461-1.332h-13.637l8.2539-29.328h4c3.1602,0,3.1602-4.8008,0-4.8008h-30.832c-3.1602,0-3.1602,4.8008,0,4.8008h.0006Z" style="fill-rule: evenodd; stroke-width: 0px;"/>
</svg>