<?xml version="1.0" encoding="UTF-8"?>
<svg id="Layer_1" data-name="Layer 1" xmlns="http://www.w3.org/2000/svg" width="100" height="80" viewBox="0 0 100 80">
  <path d="m70.3089,32.2181c-1.011-3.107-12.936-1.879-12.936-1.879-.688-.1-1.281-.532-1.589-1.154,0,0-2.518-11.721-5.784-11.721s-5.785,11.722-5.785,11.722c-.306.622-.902,1.053-1.588,1.154,0,0-11.926-1.229-12.936,1.879-1.008,3.108,9.359,9.123,9.359,9.123.498.485.725,1.184.607,1.868,0,0-4.853,10.961-2.209,12.883,2.644,1.921,11.57-6.083,11.57-6.083.307-.161.645-.242.981-.242s.674.081.98.242c.002,0,8.927,8.002,11.57,6.082,2.643-1.921-2.21-12.883-2.21-12.883-.117-.685.109-1.383.607-1.867.002,0,10.371-6.016,9.363-9.124Zm24.647,15.21c-.631-1.942-8.085-1.175-8.085-1.175-.429-.062-.8-.332-.992-.721,0,0-1.573-7.325-3.615-7.325s-3.615,7.326-3.615,7.326c-.191.388-.563.657-.993.721,0,0-7.453-.768-8.084,1.174-.63,1.942,5.849,5.702,5.849,5.702.312.304.454.739.38,1.167,0,0-3.033,6.852-1.381,8.053,1.653,1.2,7.231-3.803,7.231-3.803.192-.101.403-.151.613-.151.211,0,.422.051.613.151.001,0,5.579,5.002,7.23,3.801,1.652-1.199-1.38-8.051-1.38-8.051-.074-.429.067-.865.379-1.167,0,0,6.482-3.76,5.85-5.702Zm-72.612-1.175c-.43-.062-.8-.332-.993-.721,0,0-1.574-7.325-3.615-7.325s-3.615,7.326-3.615,7.326c-.191.388-.564.657-.993.721,0,0-7.454-.768-8.084,1.174-.63,1.942,5.849,5.702,5.849,5.702.312.304.454.739.38,1.167,0,0-3.033,6.852-1.38,8.053,1.652,1.2,7.231-3.803,7.231-3.803.192-.101.403-.151.614-.151.21,0,.422.051.612.151.002,0,5.58,5.002,7.231,3.801,1.651-1.199-1.381-8.051-1.381-8.051-.074-.429.068-.865.379-1.167,0,0,6.481-3.76,5.851-5.702-.633-1.943-8.086-1.175-8.086-1.175Z" style="fill: #ffd803; stroke-width: 0px;"/>
</svg>