<?xml version="1.0" encoding="UTF-8"?>
<svg xmlns="http://www.w3.org/2000/svg" width="127.559" height="127.559" xmlns:xlink="http://www.w3.org/1999/xlink" viewBox="0 0 127.559 127.559">
  <defs>
    <clipPath id="clippath">
      <rect x="0" y="0" width="127.559" height="127.559" rx="63.7793" ry="63.7793" style="fill: #c8c8c8; stroke-width: 0px;"/>
    </clipPath>
  </defs>
  <g style="isolation: isolate;">
    <g id="Layer_2" data-name="Layer 2">
      <g id="OBJECTS">
        <g>
          <rect x="0" y="0" width="127.559" height="127.559" rx="63.7793" ry="63.7793" style="fill: #c8c8c8;"/>
          <g style="clip-path: url(#clippath);">
            <g>
              <path d="m101.3093,129.4753l-2.0108-16.1366c-.7468-5.9928-4.7777-11.0668-10.4465-13.1493l-12.1877-4.4774c-1.27-.4666-2.114-1.6759-2.114-3.0289v-15.3736h-21.5422v15.3736c0,1.353-.8441,2.5623-2.114,3.0289l-12.1876,4.4774c-5.6687,2.0825-9.6998,7.1565-10.4466,13.1493l-2.0108,16.1366h75.0602Z" style="fill: #fafafa; stroke-width: 0px;"/>
              <path d="m99.6748,113.2919c-.7671-6.1608-4.8639-11.3182-10.6912-13.4592l-10.047-3.6905c-2.6015,1.6877-7.8561,4.3471-15.1573,4.3471s-12.5558-2.6592-15.1572-4.3471l-10.0471,3.6905c-5.8273,2.1418-9.9241,7.2984-10.6912,13.4592l-2.0647,16.563h75.9204l-2.0647-16.563Z" style="fill: #a9dbd8; stroke-width: 0px;"/>
              <path d="m99.6748,113.2919c-.7671-6.1608-4.8639-11.3182-10.6912-13.4592l-10.047-3.6905c-2.6015,1.6877-7.8561,4.3471-15.1573,4.3471s-12.5558-2.6592-15.1572-4.3471l-10.0471,3.6905c-5.8273,2.1418-9.9241,7.2984-10.6912,13.4592l-2.0647,16.563h75.9204l-2.0647-16.563Z" style="fill: #fafafa; mix-blend-mode: overlay; opacity: .3; stroke-width: 0px;"/>
              <path d="m53.0081,86.9635c3.2928,1.4734,7.0168,2.4173,10.7715,2.4173s7.4782-.9438,10.7706-2.4169v-9.6544h-21.5421v9.6541Z" style="fill: #e1e1e1; mix-blend-mode: multiply; opacity: .4; stroke-width: 0px;"/>
              <path d="m44.9121,129.8549c.0774-18.3444,5.7196-34.8557,5.7196-34.8557l-12.1875,4.477c-5.9607,2.1907-10.1517,7.4667-10.9372,13.769l-2.0701,16.6097h19.4753Z" style="fill: #a9dbd8; stroke-width: 0px;"/>
              <path d="m53.0081,92.6831c0,1.353-.8441,2.5623-2.114,3.0289l-.5598.2056s-2.3133,6.717-4.0082,17.3723c0,0-.6202-.297-1.1658-.6731,0,0-3.9448,2.3308-7.533,4.0724,0,0,5.7914-13.1106,7.47-20.7231,0,0,3.714-1.5401,5.5343-3.2828l2.3764-.0002Z" style="fill: #a9dbd8; stroke-width: 0px;"/>
              <path d="m53.0081,92.6831c0,1.353-.8441,2.5623-2.114,3.0289l-.5598.2056s-2.3133,6.717-4.0082,17.3723c0,0-.6202-.297-1.1658-.6731,0,0-3.9448,2.3308-7.533,4.0724,0,0,5.7914-13.1106,7.47-20.7231,0,0,3.714-1.5401,5.5343-3.2828l2.3764-.0002Z" style="fill: #a9dbd8; mix-blend-mode: multiply; opacity: .5; stroke-width: 0px;"/>
              <path d="m102.1221,129.8549l-2.0701-16.6097c-.7856-6.3023-4.9766-11.5783-10.9373-13.769l-12.1875-4.477s5.6422,16.5113,5.7197,34.8557h19.4752Z" style="fill: #a9dbd8; stroke-width: 0px;"/>
              <path d="m74.5509,92.6831c0,1.353.8441,2.5623,2.114,3.0289l.5597.2056s2.3133,6.717,4.0082,17.3723c0,0,.6203-.297,1.1658-.6731,0,0,3.9449,2.3308,7.533,4.0724,0,0-5.7914-13.1106-7.47-20.7231,0,0-3.714-1.5401-5.5342-3.2828l-2.3764-.0002Z" style="fill: #a9dbd8; stroke-width: 0px;"/>
              <path d="m74.5509,92.6831c0,1.353.8441,2.5623,2.114,3.0289l.5597.2056s2.3133,6.717,4.0082,17.3723c0,0,.6203-.297,1.1658-.6731,0,0,3.9449,2.3308,7.533,4.0724,0,0-5.7914-13.1106-7.47-20.7231,0,0-3.714-1.5401-5.5342-3.2828l-2.3764-.0002Z" style="fill: #a9dbd8; mix-blend-mode: multiply; opacity: .5; stroke-width: 0px;"/>
              <path d="m40.7936,68.8322v-10.42c-1.2875-2.6321-4.6028-3.4887-6.3654-1.0237-2.6071,3.646,2.2242,11.4438,6.3654,11.4438Z" style="fill: #fafafa; stroke-width: 0px;"/>
              <path d="m86.7662,68.8322v-10.42c1.2875-2.6321,4.6029-3.4887,6.3655-1.0237,2.6071,3.646-2.2242,11.4438-6.3655,11.4438Z" style="fill: #fafafa; stroke-width: 0px;"/>
              <path d="m40.7936,68.8322v-10.42c-1.2875-2.6321-4.6028-3.4887-6.3654-1.0237-2.6071,3.646,2.2242,11.4438,6.3654,11.4438Z" style="fill: #e1e1e1; mix-blend-mode: multiply; opacity: .4; stroke-width: 0px;"/>
              <path d="m86.7662,68.8322v-10.42c1.2875-2.6321,4.6029-3.4887,6.3655-1.0237,2.6071,3.646-2.2242,11.4438-6.3655,11.4438Z" style="fill: #e1e1e1; mix-blend-mode: multiply; opacity: .4; stroke-width: 0px;"/>
              <path d="m63.78,86.154c-8.4525,0-16.7619-4.7683-20.3035-9.6456-3.3345-4.5922-3.5687-7.7922-5.2734-29.2076-1.4086-17.6963,8.6726-25.9527,25.5769-25.9527s26.9854,8.2564,25.5767,25.9527c-1.7046,21.4153-1.9389,24.6153-5.2734,29.2076-3.5415,4.8774-11.8508,9.6456-20.3033,9.6456Z" style="fill: #fafafa; stroke-width: 0px;"/>
              <path d="m79.1817,18.6091c4.1479,4.2764,7.8058,6.232,12.9046,9.8201,5.0989,3.5882,4.5953,9.0647,2.7068,13.3573-1.8885,4.2925-.9246,6.3459-.9246,9.3676,0,4.7711-5.4207,7.263-5.4207,7.263-.8218-.9659-1.5218-2.2397-1.9511-3.1062-.2873-.5799-.4-1.2294-.3104-1.8704.345-2.4716,1.0133-9.7022-1.591-16.9536-3.2104-8.9389-16.6188-11.331-20.8155-11.331s-17.6049,2.3921-20.8154,11.331c-2.6043,7.2514-1.936,14.482-1.5909,16.9536.0895.641-.0232,1.2905-.3105,1.8704-.4293.8665-1.1292,2.1403-1.9511,3.1062,0,0-5.4207-2.4919-5.4207-7.263,0-3.0216.9639-5.0751-.9246-9.3676-1.8885-4.2925-2.3921-9.7691,2.7068-13.3573,5.0989-3.5881,7.1149-5.0534,11.5198-9.0647,7.9945-7.2803,16.7866-7.2803,22.1018-4.4048,0,0-2.3357-2.0161-1.2026-5.1006,0,0,.8837,1.3717,3.053,2.4865,2.2663,1.1645,2.0668,4.2176,2.0668,4.2176,0,0,1.6787-1.8256,5.0465-1.6367,2.94.1649,4.2805,1.7312,6.2319,1.3535,0,0-1.8885,2.0459-5.1091,2.3291Z" style="fill: #60a8a4; stroke-width: 0px;"/>
              <path d="m41.3488,53.2506c-.0413-.3103-.0851-.678-.1271-1.1051-.9959,1.0744-2.2946,1.8508-3.9792,2.1874,2.6375-6.2635-1.895-10.0405-2.0208-14.0692,0,0-.4406,2.1822.6924,5.5395,1.1332,3.3573,1.3849,7.1763-.3776,9.3586,0,0,3.375.3894,5.8123-1.9112Z" style="fill: #60a8a4; mix-blend-mode: multiply; opacity: .3; stroke-width: 0px;"/>
              <path d="m86.211,53.2506c.0413-.3103.085-.678.1271-1.1051.9959,1.0744,2.2946,1.8508,3.9791,2.1874-2.6374-6.2635,1.895-10.0405,2.0208-14.0692,0,0,.4406,2.1822-.6923,5.5395-1.1332,3.3573-1.385,7.1763.3776,9.3586,0,0-3.375.3894-5.8123-1.9112Z" style="fill: #60a8a4; mix-blend-mode: multiply; opacity: .3; stroke-width: 0px;"/>
              <path d="m84.4694,30.8843c2.9042,2.3832,7.9946,5.3507,7.8687,9.3794-.1259,4.0288-4.6591,7.8058-2.0216,14.0692-4.0434-.8079-5.8899-4.1232-6.5614-8.11-.2511-4.0025,1.1967-6.8405-.8176-9.7362-1.9144-2.752-4.3436-2.2033-9.9251-6.3789-4.0288,3.2734-13.1407,1.6787-18.2134,6.2111-4.6472,4.1522-3.7769,11.163-3.7769,11.163,0,0-5.036-3.3573-4.1966-8.2254,0,0-2.2035,2.1085-3.0216,6.9664-.6714,3.9868-2.518,7.3021-6.5614,8.11,2.6376-6.2635-1.8948-10.0405-2.0207-14.0692-.1259-4.0288,4.9645-6.9962,7.8688-9.3794,0,0,4.4906-8.1206,20.6894-8.1206s20.6895,8.1206,20.6895,8.1206Z" style="fill: #60a8a4; stroke-width: 0px;"/>
              <path d="m79.1817,18.6091c3.6298,4.5953,7.8058,7.3076,12.9045,10.8957,2.8037,1.9729,3.9072,4.517,4.0242,7.1209.1621-2.9697-.8352-5.9524-4.0242-8.1965-5.0988-3.5882-8.7565-5.5437-12.9045-9.8201Z" style="fill: #fafafa; mix-blend-mode: overlay; opacity: .3; stroke-width: 0px;"/>
              <path d="m70.9456,13.4212c1.495.7657,2.3214,4.0903,2.3214,4.0903,0,0,1.424-1.6982,4.7919-1.5094,2.2285.1249,3.5382,1.0536,4.8915,1.3319.8702-.5453,1.3405-1.0541,1.3405-1.0541-1.9515.3777-3.292-1.1885-6.2319-1.3535-3.368-.1888-5.0466,1.6367-5.0466,1.6367,0,0,.1994-3.0531-2.0667-4.2176-2.1694-1.1148-3.0532-2.4865-3.0532-2.4865-.1239.3375-.2001.6598-.2487.9704.023.0297,1.153,1.4912,3.3018,2.5917Z" style="fill: #fafafa; mix-blend-mode: overlay; opacity: .3; stroke-width: 0px;"/>
              <path d="m35.4735,29.5048c5.0988-3.5881,7.1149-5.0534,11.5197-9.0647,7.9947-7.2803,16.7866-8.3559,22.1019-5.4803-5.3152-2.8755-14.1072-2.8755-22.1019,4.4048-4.4048,4.0113-6.421,5.4765-11.5197,9.0647-3.189,2.2441-4.1862,5.2268-4.0242,8.1965.1172-2.6039,1.2207-5.148,4.0242-7.1209Z" style="fill: #fafafa; mix-blend-mode: overlay; opacity: .3; stroke-width: 0px;"/>
              <path d="m73.0124,16.5632s2.2242,6.9979,0,13.5446c0,0,2.1395-2.693,1.9576-7.2357-.1845-4.6093-1.9576-6.3089-1.9576-6.3089Z" style="fill: #60a8a4; mix-blend-mode: multiply; opacity: .3; stroke-width: 0px;"/>
            </g>
          </g>
        </g>
      </g>
    </g>
  </g>
</svg>